<svg width="16" height="8" viewBox="0 0 16 8" fill="none" xmlns="http://www.w3.org/2000/svg">
<path d="M14.9271 4.63449C14.9269 4.63467 14.9268 4.63487 14.9266 4.63504L11.9362 7.61094C11.7122 7.83388 11.3499 7.83305 11.1269 7.60899C10.9039 7.38497 10.9048 7.02263 11.1288 6.79966L13.1365 4.80169L1.01663 4.80169C0.70055 4.80169 0.444336 4.54547 0.444336 4.2294C0.444336 3.91332 0.70055 3.65711 1.01663 3.65711L13.1365 3.65711L11.1288 1.65913C10.9048 1.43617 10.904 1.07382 11.1269 0.849802C11.3499 0.625723 11.7123 0.62495 11.9363 0.847857L14.9266 3.82376C14.9268 3.82393 14.9269 3.82413 14.9271 3.8243C15.1513 4.04801 15.1505 4.41153 14.9271 4.63449Z" fill="white"/>
</svg>
