<?xml version="1.0" encoding="utf-8"?><svg viewBox="0 0 168 38" xmlns="http://www.w3.org/2000/svg" xmlns:xlink="http://www.w3.org/1999/xlink"><style>:root>svg{display:none}:root>svg:target{display:block}</style><svg fill="none" viewBox="0 0 19 20" id="Facebook" xmlns="http://www.w3.org/2000/svg"><path d="M14.31 0h-2.59C8.578 0 6.547 1.988 6.547 5.067v1.968H3.94a.43.43 0 00-.44.422v3.385c0 .233.197.42.44.42h2.606v8.318c0 .231.197.42.439.42h3.67a.431.431 0 00.442-.42v-8.32h3.211a.43.43 0 00.44-.42l.002-3.383a.415.415 0 00-.13-.296.45.45 0 00-.31-.124h-3.213V5.422c0-.95.237-1.434 1.537-1.434l1.676-.005a.43.43 0 00.439-.42V.42a.429.429 0 00-.44-.42z" fill="#DFDFDF"/></svg><svg fill="none" viewBox="0 0 20 20" id="Instagram" xmlns="http://www.w3.org/2000/svg"><path d="M5.714 0h8.572A5.714 5.714 0 0120 5.714v8.572A5.714 5.714 0 0114.286 20H5.714A5.714 5.714 0 010 14.286V5.714A5.714 5.714 0 015.714 0zM10 14.286a4.286 4.286 0 100-8.572 4.286 4.286 0 000 8.572zm4.92-7.937a1.27 1.27 0 10.085-2.539 1.27 1.27 0 00-.085 2.539z" fill="#DFDFDF"/></svg><svg fill="none" viewBox="0 0 16 8" id="arr" xmlns="http://www.w3.org/2000/svg"><path d="M14.927 4.634v.001l-2.99 2.976a.572.572 0 11-.808-.811l2.008-1.998H1.017a.572.572 0 110-1.145h12.12L11.128 1.66a.572.572 0 01.807-.811l2.99 2.976h.001a.573.573 0 010 .81z" fill="#fff"/></svg><svg fill="none" viewBox="0 0 168 38" id="logo" xmlns="http://www.w3.org/2000/svg"><g clip-path="url(#dclip0_465_373)" fill="#275553"><path d="M66.607 14V.73h3.746c1.155 0 2.176.254 3.063.765a5.149 5.149 0 012.05 2.178c.487.942.733 2.024.74 3.245v.848c0 1.251-.244 2.348-.73 3.29a5.061 5.061 0 01-2.07 2.17c-.892.504-1.934.762-3.125.774h-3.674zm1.75-11.83v10.4H70.2c1.349 0 2.397-.42 3.144-1.259.754-.838 1.13-2.032 1.13-3.582v-.775c0-1.506-.355-2.676-1.066-3.509-.705-.838-1.708-1.264-3.008-1.276h-2.042zm15.368 6.462h-3.118V14h-1.759V.73h4.394c1.494 0 2.643.34 3.445 1.02.808.68 1.212 1.671 1.212 2.971 0 .827-.225 1.547-.674 2.16-.444.614-1.064 1.073-1.86 1.377l3.117 5.633V14h-1.877l-2.88-5.368zM80.607 7.2h2.69c.868 0 1.558-.225 2.068-.675.517-.45.775-1.051.775-1.805 0-.82-.246-1.449-.738-1.886-.486-.438-1.191-.66-2.115-.666h-2.68v5.032zm17.254.665H92.11v4.703h6.681V14H90.36V.73h8.34v1.44h-6.59v4.265h5.751v1.43zm10.437 2.67h-5.56L101.489 14h-1.805L104.752.73h1.531L111.36 14h-1.796l-1.266-3.463zm-5.032-1.44h4.512l-2.26-6.207-2.252 6.207zM115.407.73l4.338 10.828L124.084.73h2.27V14h-1.75V8.832l.164-5.578L120.411 14h-1.34l-4.348-10.719.173 5.551V14h-1.75V.73h2.261zm17.409 7.1l-1.623 1.687V14h-1.75V.73h1.75v6.562L137.09.729h2.115l-5.223 5.86L139.615 14h-2.096l-4.703-6.17zm15.659 2.708h-5.56L141.666 14h-1.805L144.929.73h1.531L151.537 14h-1.795l-1.267-3.463zm-5.032-1.44h4.512l-2.26-6.208-2.252 6.207zM155.584.728l4.339 10.828L164.261.73h2.27V14h-1.75V8.832l.164-5.578L160.588 14h-1.34l-4.347-10.719.172 5.551V14h-1.75V.73h2.261zM77.04 24.178h-4.265v11.83h-1.741v-11.83h-4.257v-1.44H77.04v1.44zm11.922 5.624c0 1.3-.219 2.436-.656 3.409-.438.966-1.057 1.704-1.86 2.214-.801.51-1.737.766-2.807.766-1.045 0-1.971-.255-2.78-.766-.808-.516-1.437-1.248-1.886-2.196-.444-.954-.672-2.057-.684-3.309v-.957c0-1.276.222-2.403.665-3.381.444-.979 1.07-1.726 1.878-2.243.814-.522 1.744-.784 2.79-.784 1.063 0 1.998.259 2.806.775.815.51 1.44 1.255 1.878 2.233.438.973.656 2.106.656 3.4v.839zm-1.74-.857c0-1.574-.317-2.78-.948-3.619-.633-.844-1.517-1.267-2.653-1.267-1.106 0-1.978.423-2.616 1.267-.632.839-.957 2.006-.975 3.5v.976c0 1.525.319 2.725.957 3.6.644.869 1.528 1.303 2.652 1.303 1.13 0 2.006-.41 2.625-1.23.62-.827.94-2.008.957-3.546v-.984zm13.708-6.207v9.023c-.006 1.252-.401 2.276-1.185 3.072-.778.796-1.835 1.242-3.172 1.34l-.465.018c-1.452 0-2.61-.392-3.473-1.176-.862-.784-1.3-1.862-1.312-3.236v-9.041h1.732v8.987c0 .96.264 1.707.793 2.242.528.529 1.282.793 2.26.793.99 0 1.747-.264 2.27-.793.528-.529.793-1.273.793-2.233v-8.996h1.759zm7.629 7.902h-3.118v5.369h-1.759V22.738h4.394c1.494 0 2.643.34 3.445 1.02.808.681 1.212 1.672 1.212 2.972 0 .826-.225 1.546-.674 2.16-.444.614-1.064 1.073-1.86 1.377l3.117 5.632v.11h-1.877l-2.88-5.369zm-3.118-1.43h2.689c.869 0 1.559-.226 2.069-.675.517-.45.775-1.052.775-1.805 0-.82-.246-1.45-.738-1.887-.486-.437-1.191-.659-2.115-.665h-2.68v5.031z"/></g><g clip-path="url(#dclip1_465_373)"><path fill-rule="evenodd" clip-rule="evenodd" d="M.607 31.85V2.02C.607.905 1.513 0 2.631 0h14.937c1.504 0 2.483 1.58 1.81 2.924L4.441 32.754C3.486 34.66.607 33.981.607 31.85zm49.778 0V2.02C50.385.905 49.48 0 48.362 0H33.424c-1.504 0-2.482 1.58-1.81 2.924l14.938 29.83c.955 1.906 3.833 1.228 3.833-.904zm-23.877 3.305V5.326c0-2.132 2.879-2.81 3.833-.904l14.938 29.83c.672 1.343-.306 2.924-1.81 2.924H28.53a2.022 2.022 0 01-2.023-2.02zM24.485 5.326v29.83c0 1.115-.906 2.02-2.024 2.02H7.524c-1.504 0-2.483-1.58-1.81-2.924L20.65 4.422c.955-1.907 3.834-1.228 3.834.904z" fill="#275553"/></g><defs><clipPath id="dclip0_465_373"><path fill="#fff" transform="translate(66)" d="M0 0h101.111v36.556H0z"/></clipPath><clipPath id="dclip1_465_373"><path fill="#fff" d="M0 0h49.778v37.176H0z"/></clipPath></defs></svg></svg>